<svg width="50" height="50" viewBox="0 0 50 50" fill="none" xmlns="http://www.w3.org/2000/svg">
<path d="M50 25C50 38.8071 38.8071 50 25 50C11.1929 50 0 38.8071 0 25C0 11.1929 11.1929 0 25 0C38.8071 0 50 11.1929 50 25Z" fill="#D1404E"/>
<path fill-rule="evenodd" clip-rule="evenodd" d="M48 25C48 37.7025 37.7025 48 25 48C12.2975 48 2 37.7025 2 25C2 12.2975 12.2975 2 25 2C37.7025 2 48 12.2975 48 25ZM50 25C50 38.8071 38.8071 50 25 50C11.1929 50 0 38.8071 0 25C0 11.1929 11.1929 0 25 0C38.8071 0 50 11.1929 50 25ZM33.6573 13.7072C33.2668 13.3167 32.6336 13.3167 32.2431 13.7072L28.7076 17.2427C28.317 17.6333 28.317 18.2664 28.7076 18.6569C29.0981 19.0475 29.7312 19.0475 30.1218 18.6569L33.6573 15.1214C34.0478 14.7309 34.0478 14.0977 33.6573 13.7072ZM16 25.0001C17.6569 25.0001 19 23.6569 19 22.0001C19 20.3432 17.6569 19.0001 16 19.0001C14.3431 19.0001 13 20.3432 13 22.0001C13 23.6569 14.3431 25.0001 16 25.0001ZM34 25.0001C35.6569 25.0001 37 23.6569 37 22.0001C37 20.3432 35.6569 19.0001 34 19.0001C32.3431 19.0001 31 20.3432 31 22.0001C31 23.6569 32.3431 25.0001 34 25.0001ZM34.1556 37.0003C33.6933 37.0003 33.2936 36.6885 33.1357 36.254C31.8093 32.6059 28.3113 30.0003 24.2048 30.0003C20.0983 30.0003 16.6003 32.6059 15.2739 36.254C15.116 36.6885 14.7163 37.0003 14.254 37.0003C13.5987 37.0003 13.1104 36.3915 13.3228 35.7716C14.8716 31.2505 19.1586 28.0003 24.2048 28.0003C29.251 28.0003 33.538 31.2505 35.0868 35.7716C35.2992 36.3915 34.8109 37.0003 34.1556 37.0003ZM18.1212 13.7072C17.7306 13.3167 17.0975 13.3167 16.707 13.7072C16.3164 14.0977 16.3164 14.7309 16.707 15.1214L20.2425 18.6569C20.633 19.0475 21.2662 19.0475 21.6567 18.6569C22.0472 18.2664 22.0472 17.6333 21.6567 17.2427L18.1212 13.7072Z" fill="#A1101C"/>
</svg>
