<svg width="50" height="50" viewBox="0 0 50 50" fill="none" xmlns="http://www.w3.org/2000/svg">
<path d="M50 25C50 38.8071 38.8071 50 25 50C11.1929 50 0 38.8071 0 25C0 11.1929 11.1929 0 25 0C38.8071 0 50 11.1929 50 25Z" fill="#87CB91"/>
<path fill-rule="evenodd" clip-rule="evenodd" d="M48 25C48 37.7025 37.7025 48 25 48C12.2975 48 2 37.7025 2 25C2 12.2975 12.2975 2 25 2C37.7025 2 48 12.2975 48 25ZM50 25C50 38.8071 38.8071 50 25 50C11.1929 50 0 38.8071 0 25C0 11.1929 11.1929 0 25 0C38.8071 0 50 11.1929 50 25ZM18.955 24C18.6649 24 18.3888 23.8883 18.1529 23.7196C17.5025 23.2548 16.7583 23 16.0171 23C15.2759 23 14.5317 23.2548 13.8814 23.7196C13.6454 23.8883 13.3693 24 13.0792 24C12.1495 24 11.6181 22.9903 12.3273 22.3891C13.3564 21.5166 14.6336 21 16.0171 21C17.4006 21 18.6778 21.5166 19.7069 22.3891C20.4161 22.9903 19.8847 24 18.955 24ZM36.1294 23.7196C36.3654 23.8883 36.6415 24 36.9315 24C37.8613 24 38.3927 22.9903 37.6835 22.3891C36.6544 21.5166 35.3772 21 33.9937 21C32.6102 21 31.333 21.5166 30.3039 22.3891C29.5947 22.9903 30.1261 24 31.0558 24C31.3459 24 31.6219 23.8883 31.8579 23.7196C32.5083 23.2548 33.2525 23 33.9937 23C34.7349 23 35.4791 23.2548 36.1294 23.7196ZM24.2045 37C18.7118 37 14.1185 33.1492 12.977 28H35.432C34.2906 33.1492 29.6973 37 24.2045 37Z" fill="#3F9E4C"/>
</svg>
