<svg width="50" height="50" viewBox="0 0 50 50" fill="none" xmlns="http://www.w3.org/2000/svg">
<path d="M50 25C50 38.8071 38.8071 50 25 50C11.1929 50 0 38.8071 0 25C0 11.1929 11.1929 0 25 0C38.8071 0 50 11.1929 50 25Z" fill="#DE6451"/>
<path d="M16 24C17.6569 24 19 22.6569 19 21C19 19.3431 17.6569 18 16 18C14.3431 18 13 19.3431 13 21C13 22.6569 14.3431 24 16 24Z" fill="#AD2A16"/>
<path d="M34 24C35.6569 24 37 22.6569 37 21C37 19.3431 35.6569 18 34 18C32.3431 18 31 19.3431 31 21C31 22.6569 32.3431 24 34 24Z" fill="#AD2A16"/>
<path d="M34.1556 36C33.6933 36 33.2936 35.6881 33.1357 35.2537C31.8093 31.6056 28.3113 29 24.2048 29C20.0983 29 16.6003 31.6056 15.2739 35.2537C15.116 35.6881 14.7163 36 14.254 36C13.5987 36 13.1104 35.3912 13.3228 34.7712C14.8716 30.2501 19.1586 27 24.2048 27C29.251 27 33.538 30.2501 35.0868 34.7712C35.2992 35.3912 34.8109 36 34.1556 36Z" fill="#AD2A16"/>
<path fill-rule="evenodd" clip-rule="evenodd" d="M50 25C50 38.8071 38.8071 50 25 50C11.1929 50 0 38.8071 0 25C0 11.1929 11.1929 0 25 0C38.8071 0 50 11.1929 50 25ZM48 25C48 37.7025 37.7025 48 25 48C12.2975 48 2 37.7025 2 25C2 12.2975 12.2975 2 25 2C37.7025 2 48 12.2975 48 25Z" fill="#AD2A16"/>
</svg>
