<svg width="50" height="50" viewBox="0 0 50 50" fill="none" xmlns="http://www.w3.org/2000/svg">
<path d="M50 25C50 38.8071 38.8071 50 25 50C11.1929 50 0 38.8071 0 25C0 11.1929 11.1929 0 25 0C38.8071 0 50 11.1929 50 25Z" fill="#EC864E"/>
<path fill-rule="evenodd" clip-rule="evenodd" d="M48 25C48 37.7025 37.7025 48 25 48C12.2975 48 2 37.7025 2 25C2 12.2975 12.2975 2 25 2C37.7025 2 48 12.2975 48 25ZM50 25C50 38.8071 38.8071 50 25 50C11.1929 50 0 38.8071 0 25C0 11.1929 11.1929 0 25 0C38.8071 0 50 11.1929 50 25ZM16 23C17.6569 23 19 21.6569 19 20C19 18.3431 17.6569 17 16 17C14.3431 17 13 18.3431 13 20C13 21.6569 14.3431 23 16 23ZM34 23C35.6569 23 37 21.6569 37 20C37 18.3431 35.6569 17 34 17C32.3431 17 31 18.3431 31 20C31 21.6569 32.3431 23 34 23ZM33.2012 33C32.8145 33 32.4632 32.7851 32.2577 32.4577C30.5776 29.7801 27.5991 28 24.2048 28C20.8105 28 17.832 29.7801 16.1519 32.4577C15.9464 32.7851 15.595 33 15.2084 33C14.4549 33 13.9525 32.2307 14.3407 31.5848C16.3515 28.2388 20.0167 26 24.2048 26C28.3929 26 32.0581 28.2388 34.0689 31.5848C34.4571 32.2307 33.9547 33 33.2012 33Z" fill="#BD4F1B"/>
</svg>
