<svg width="50" height="50" viewBox="0 0 50 50" fill="none" xmlns="http://www.w3.org/2000/svg">
<path d="M50 25C50 38.8071 38.8071 50 25 50C11.1929 50 0 38.8071 0 25C0 11.1929 11.1929 0 25 0C38.8071 0 50 11.1929 50 25Z" fill="#F2A74F"/>
<path fill-rule="evenodd" clip-rule="evenodd" d="M48 25C48 37.7025 37.7025 48 25 48C12.2975 48 2 37.7025 2 25C2 12.2975 12.2975 2 25 2C37.7025 2 48 12.2975 48 25ZM50 25C50 38.8071 38.8071 50 25 50C11.1929 50 0 38.8071 0 25C0 11.1929 11.1929 0 25 0C38.8071 0 50 11.1929 50 25ZM16 23C17.6569 23 19 21.6569 19 20C19 18.3431 17.6569 17 16 17C14.3431 17 13 18.3431 13 20C13 21.6569 14.3431 23 16 23ZM34 23C35.6569 23 37 21.6569 37 20C37 18.3431 35.6569 17 34 17C32.3431 17 31 18.3431 31 20C31 21.6569 32.3431 23 34 23ZM30.4292 30C30.1747 30 29.9288 29.9131 29.7217 29.7652C28.1665 28.6539 26.262 28 24.2048 28C22.1476 28 20.2431 28.6539 18.6879 29.7652C18.4808 29.9131 18.2349 30 17.9804 30C17.0022 30 16.5221 28.8871 17.3042 28.2996C19.2263 26.8556 21.6157 26 24.2048 26C26.7939 26 29.1832 26.8556 31.1054 28.2996C31.8875 28.8871 31.4074 30 30.4292 30Z" fill="#C4711F"/>
</svg>
