<svg width="50" height="50" viewBox="0 0 50 50" fill="none" xmlns="http://www.w3.org/2000/svg">
<path d="M50 25C50 38.8071 38.8071 50 25 50C11.1929 50 0 38.8071 0 25C0 11.1929 11.1929 0 25 0C38.8071 0 50 11.1929 50 25Z" fill="#FEC84F"/>
<path fill-rule="evenodd" clip-rule="evenodd" d="M48 25C48 37.7025 37.7025 48 25 48C12.2975 48 2 37.7025 2 25C2 12.2975 12.2975 2 25 2C37.7025 2 48 12.2975 48 25ZM50 25C50 38.8071 38.8071 50 25 50C11.1929 50 0 38.8071 0 25C0 11.1929 11.1929 0 25 0C38.8071 0 50 11.1929 50 25ZM16 22C17.6569 22 19 20.6569 19 19C19 17.3431 17.6569 16 16 16C14.3431 16 13 17.3431 13 19C13 20.6569 14.3431 22 16 22ZM34 22C35.6569 22 37 20.6569 37 19C37 17.3431 35.6569 16 34 16C32.3431 16 31 17.3431 31 19C31 20.6569 32.3431 22 34 22ZM17 26C17 25.4477 17.4477 25 18 25H31C31.5523 25 32 25.4477 32 26C32 26.5523 31.5523 27 31 27H18C17.4477 27 17 26.5523 17 26Z" fill="#D19C2A"/>
</svg>
