<svg width="50" height="50" viewBox="0 0 50 50" fill="none" xmlns="http://www.w3.org/2000/svg">
<path d="M50 25C50 38.8071 38.8071 50 25 50C11.1929 50 0 38.8071 0 25C0 11.1929 11.1929 0 25 0C38.8071 0 50 11.1929 50 25Z" fill="#FBE154"/>
<path fill-rule="evenodd" clip-rule="evenodd" d="M48 25C48 37.7025 37.7025 48 25 48C12.2975 48 2 37.7025 2 25C2 12.2975 12.2975 2 25 2C37.7025 2 48 12.2975 48 25ZM50 25C50 38.8071 38.8071 50 25 50C11.1929 50 0 38.8071 0 25C0 11.1929 11.1929 0 25 0C38.8071 0 50 11.1929 50 25ZM16 20C17.6569 20 19 18.6569 19 17C19 15.3431 17.6569 14 16 14C14.3431 14 13 15.3431 13 17C13 18.6569 14.3431 20 16 20ZM34 20C35.6569 20 37 18.6569 37 17C37 15.3431 35.6569 14 34 14C32.3431 14 31 15.3431 31 17C31 18.6569 32.3431 20 34 20ZM30.4292 23C30.1747 23 29.9288 23.0869 29.7217 23.2348C28.1665 24.3461 26.262 25 24.2048 25C22.1476 25 20.2431 24.3461 18.6879 23.2348C18.4808 23.0869 18.2349 23 17.9804 23C17.0022 23 16.5221 24.1129 17.3042 24.7004C19.2263 26.1444 21.6157 27 24.2048 27C26.7939 27 29.1832 26.1444 31.1054 24.7004C31.8875 24.1129 31.4074 23 30.4292 23Z" fill="#CDB62F"/>
</svg>
