<svg width="50" height="50" viewBox="0 0 50 50" fill="none" xmlns="http://www.w3.org/2000/svg">
<path d="M50 25C50 38.8071 38.8071 50 25 50C11.1929 50 0 38.8071 0 25C0 11.1929 11.1929 0 25 0C38.8071 0 50 11.1929 50 25Z" fill="#D7DC5F"/>
<path fill-rule="evenodd" clip-rule="evenodd" d="M48 25C48 37.7025 37.7025 48 25 48C12.2975 48 2 37.7025 2 25C2 12.2975 12.2975 2 25 2C37.7025 2 48 12.2975 48 25ZM50 25C50 38.8071 38.8071 50 25 50C11.1929 50 0 38.8071 0 25C0 11.1929 11.1929 0 25 0C38.8071 0 50 11.1929 50 25ZM16 22C17.6569 22 19 20.6569 19 19C19 17.3431 17.6569 16 16 16C14.3431 16 13 17.3431 13 19C13 20.6569 14.3431 22 16 22ZM34 22C35.6569 22 37 20.6569 37 19C37 17.3431 35.6569 16 34 16C32.3431 16 31 17.3431 31 19C31 20.6569 32.3431 22 34 22ZM33.2012 25C32.8145 25 32.4632 25.2149 32.2577 25.5423C30.5776 28.2199 27.5991 30 24.2048 30C20.8105 30 17.832 28.2199 16.1519 25.5423C15.9464 25.2149 15.595 25 15.2084 25C14.4549 25 13.9525 25.7693 14.3407 26.4152C16.3515 29.7612 20.0167 32 24.2048 32C28.3929 32 32.0581 29.7612 34.0689 26.4152C34.4571 25.7693 33.9547 25 33.2012 25Z" fill="#AAAD30"/>
</svg>
