<svg width="50" height="50" viewBox="0 0 50 50" fill="none" xmlns="http://www.w3.org/2000/svg">
<path d="M50 25C50 38.8071 38.8071 50 25 50C11.1929 50 0 38.8071 0 25C0 11.1929 11.1929 0 25 0C38.8071 0 50 11.1929 50 25Z" fill="#BBD66F"/>
<path fill-rule="evenodd" clip-rule="evenodd" d="M48 25C48 37.7025 37.7025 48 25 48C12.2975 48 2 37.7025 2 25C2 12.2975 12.2975 2 25 2C37.7025 2 48 12.2975 48 25ZM50 25C50 38.8071 38.8071 50 25 50C11.1929 50 0 38.8071 0 25C0 11.1929 11.1929 0 25 0C38.8071 0 50 11.1929 50 25ZM16 23C17.6569 23 19 21.6569 19 20C19 18.3431 17.6569 17 16 17C14.3431 17 13 18.3431 13 20C13 21.6569 14.3431 23 16 23ZM34 23C35.6569 23 37 21.6569 37 20C37 18.3431 35.6569 17 34 17C32.3431 17 31 18.3431 31 20C31 21.6569 32.3431 23 34 23ZM34.1556 26C33.6933 26 33.2936 26.3118 33.1357 26.7463C31.8093 30.3944 28.3113 33 24.2048 33C20.0983 33 16.6003 30.3944 15.2739 26.7463C15.116 26.3119 14.7163 26 14.254 26C13.5987 26 13.1104 26.6088 13.3228 27.2288C14.8716 31.7499 19.1586 35 24.2048 35C29.251 35 33.538 31.7499 35.0868 27.2288C35.2992 26.6088 34.8109 26 34.1556 26Z" fill="#8BA83A"/>
</svg>
