<svg width="50" height="50" viewBox="0 0 50 50" fill="none" xmlns="http://www.w3.org/2000/svg">
<path d="M50 25C50 38.8071 38.8071 50 25 50C11.1929 50 0 38.8071 0 25C0 11.1929 11.1929 0 25 0C38.8071 0 50 11.1929 50 25Z" fill="#9FD082"/>
<path fill-rule="evenodd" clip-rule="evenodd" d="M48 25C48 37.7025 37.7025 48 25 48C12.2975 48 2 37.7025 2 25C2 12.2975 12.2975 2 25 2C37.7025 2 48 12.2975 48 25ZM50 25C50 38.8071 38.8071 50 25 50C11.1929 50 0 38.8071 0 25C0 11.1929 11.1929 0 25 0C38.8071 0 50 11.1929 50 25ZM16.0227 24C17.6796 24 19.0227 22.6569 19.0227 21C19.0227 19.3431 17.6796 18 16.0227 18C14.3658 18 13.0227 19.3431 13.0227 21C13.0227 22.6569 14.3658 24 16.0227 24ZM34.0227 24C35.6796 24 37.0227 22.6569 37.0227 21C37.0227 19.3431 35.6796 18 34.0227 18C32.3658 18 31.0227 19.3431 31.0227 21C31.0227 22.6569 32.3658 24 34.0227 24ZM13 27C14.1415 32.1492 18.7348 36 24.2275 36C29.7202 36 34.3135 32.1492 35.455 27H13Z" fill="#61A246"/>
</svg>
